<svg width="24" height="24" viewBox="0 0 24 24" fill="none" xmlns="http://www.w3.org/2000/svg">
<path d="M12 2.03216L12.4681 3.63284C13.5862 7.45617 16.576 10.4459 20.3993 11.564L22 12.0322L20.3993 12.5003C16.576 13.6184 13.5862 16.6081 12.4681 20.4315L12 22.0322L11.5319 20.4315C10.4138 16.6081 7.42401 13.6184 3.60068 12.5003L2 12.0322L3.60068 11.564C7.42401 10.4459 10.4138 7.45617 11.5319 3.63284L12 2.03216Z" fill="url(#paint0_linear_39_37)"/>
<path d="M15.7322 1.96826L16.1308 2.39045C17.083 3.39887 18.4835 3.85244 19.846 3.59367L20.4165 3.48534L19.9943 3.88397C18.9858 4.83611 18.5323 6.23658 18.791 7.59913L18.8994 8.16957L18.5007 7.74739C17.5486 6.73897 16.1481 6.2854 14.7856 6.54416L14.2151 6.6525L14.6373 6.25387C15.6457 5.30172 16.0993 3.90126 15.8405 2.53871L15.7322 1.96826Z" fill="url(#paint1_linear_39_37)"/>
<defs>
<linearGradient id="paint0_linear_39_37" x1="20.4805" y1="1.96826" x2="12" y2="22.0322" gradientUnits="userSpaceOnUse">
<stop stop-color="#41B88E"/>
<stop offset="1" stop-color="#1A8864"/>
</linearGradient>
<linearGradient id="paint1_linear_39_37" x1="20.4805" y1="1.96826" x2="12" y2="22.0322" gradientUnits="userSpaceOnUse">
<stop stop-color="#41B88E"/>
<stop offset="1" stop-color="#1A8864"/>
</linearGradient>
</defs>
</svg>
