<svg width="24" height="24" viewBox="0 0 24 24" fill="none" xmlns="http://www.w3.org/2000/svg">
<path fill-rule="evenodd" clip-rule="evenodd" d="M12 22C7.28595 22 4.92893 22 3.46447 20.5355C2 19.0711 2 16.714 2 12C2 7.28595 2 4.92893 3.46447 3.46447C4.92893 2 7.28595 2 12 2C16.714 2 19.0711 2 20.5355 3.46447C22 4.92893 22 7.28595 22 12C22 16.714 22 19.0711 20.5355 20.5355C19.0711 22 16.714 22 12 22Z" fill="#10B981"/>
<path d="M12 21.75C9.63591 21.75 7.88799 21.7495 6.54695 21.5692C5.21311 21.3898 4.31928 21.0368 3.64124 20.3588L3.28769 20.7123C4.07411 21.4987 5.09104 21.8779 6.48033 22.0647C7.86243 22.2505 9.65004 22.25 12 22.25V21.75ZM1.75 12C1.75 14.35 1.74947 16.1376 1.93529 17.5197C2.12207 18.909 2.50126 19.9259 3.28769 20.7123L3.64124 20.3588C2.9632 19.6807 2.61016 18.7869 2.43083 17.453C2.25053 16.112 2.25 14.3641 2.25 12H1.75ZM21.75 12C21.75 14.3641 21.7495 16.112 21.5692 17.453C21.3898 18.7869 21.0368 19.6807 20.3588 20.3588L20.7123 20.7123C21.4987 19.9259 21.8779 18.909 22.0647 17.5197C22.2505 16.1376 22.25 14.35 22.25 12H21.75ZM12 22.25C14.35 22.25 16.1376 22.2505 17.5197 22.0647C18.909 21.8779 19.9259 21.4987 20.7123 20.7123L20.3588 20.3588C19.6807 21.0368 18.7869 21.3898 17.453 21.5692C16.112 21.7495 14.3641 21.75 12 21.75V22.25ZM12 2.25C14.3641 2.25 16.112 2.25053 17.453 2.43083C18.7869 2.61016 19.6807 2.9632 20.3588 3.64124L20.7123 3.28769C19.9259 2.50126 18.909 2.12207 17.5197 1.93529C16.1376 1.74947 14.35 1.75 12 1.75V2.25ZM22.25 12C22.25 9.65004 22.2505 7.86243 22.0647 6.48033C21.8779 5.09104 21.4987 4.07411 20.7123 3.28769L20.3588 3.64124C21.0368 4.31928 21.3898 5.21311 21.5692 6.54695C21.7495 7.88799 21.75 9.63591 21.75 12H22.25ZM12 1.75C9.65004 1.75 7.86243 1.74947 6.48033 1.93529C5.09104 2.12207 4.07411 2.50126 3.28769 3.28769L3.64124 3.64124C4.31928 2.9632 5.21311 2.61016 6.54695 2.43083C7.88799 2.25053 9.63591 2.25 12 2.25V1.75ZM2.25 12C2.25 9.63591 2.25053 7.88799 2.43083 6.54695C2.61016 5.21311 2.9632 4.31928 3.64124 3.64124L3.28769 3.28769C2.50126 4.07411 2.12207 5.09104 1.93529 6.48033C1.74947 7.86243 1.75 9.65004 1.75 12H2.25Z" fill="#059669"/>
<path d="M16.0303 8.96967C16.3232 9.26256 16.3232 9.73744 16.0303 10.0303L11.0303 15.0303C10.7374 15.3232 10.2626 15.3232 9.96967 15.0303L7.96967 13.0303C7.67678 12.7374 7.67678 12.2626 7.96967 11.9697C8.26256 11.6768 8.73744 11.6768 9.03033 11.9697L10.5 13.4393L14.9697 8.96967C15.2626 8.67678 15.7374 8.67678 16.0303 8.96967Z" fill="white"/>
</svg>
