<svg width="1080px" height="56px" viewBox="0 0 106 18" fill="none" xmlns="http://www.w3.org/2000/svg">
<mask id="path-1-inside-1_37_29" fill="white">
<path fill-rule="evenodd" clip-rule="evenodd" d="M36.0792 4.14344C41.7854 4.14344 47.3615 0.601562 53.0678 0.601562V0.601562V0.601562C58.774 0.601562 64.3501 4.14344 70.0563 4.14344H104.353C104.905 4.14344 105.353 4.59116 105.353 5.14344V16.5477C105.353 17.1 104.905 17.5477 104.353 17.5477H1.78283C1.23055 17.5477 0.782837 17.1 0.782837 16.5477V5.14344C0.782837 4.59116 1.23055 4.14344 1.78284 4.14344H36.0792Z"/>
</mask>
<path fill-rule="evenodd" clip-rule="evenodd" d="M36.0792 4.14344C41.7854 4.14344 47.3615 0.601562 53.0678 0.601562V0.601562V0.601562C58.774 0.601562 64.3501 4.14344 70.0563 4.14344H104.353C104.905 4.14344 105.353 4.59116 105.353 5.14344V16.5477C105.353 17.1 104.905 17.5477 104.353 17.5477H1.78283C1.23055 17.5477 0.782837 17.1 0.782837 16.5477V5.14344C0.782837 4.59116 1.23055 4.14344 1.78284 4.14344H36.0792Z" fill="white"/>
<path d="M70.0563 4.44344H104.353V3.84344H70.0563V4.44344ZM104.353 4.44344C104.739 4.44344 105.053 4.75684 105.053 5.14344H105.653C105.653 4.42548 105.071 3.84344 104.353 3.84344V4.44344ZM105.053 5.14344V16.5477H105.653V5.14344H105.053ZM105.053 16.5477C105.053 16.9343 104.739 17.2477 104.353 17.2477V17.8477C105.071 17.8477 105.653 17.2657 105.653 16.5477H105.053ZM104.353 17.2477H1.78283V17.8477H104.353V17.2477ZM1.78283 17.2477C1.39624 17.2477 1.08284 16.9343 1.08284 16.5477H0.482837C0.482837 17.2657 1.06486 17.8477 1.78283 17.8477V17.2477ZM1.08284 16.5477V5.14344H0.482837V16.5477H1.08284ZM1.08284 5.14344C1.08284 4.75684 1.39624 4.44344 1.78284 4.44344V3.84344C1.06487 3.84344 0.482837 4.42547 0.482837 5.14344H1.08284ZM1.78284 4.44344H36.0792V3.84344H1.78284V4.44344ZM53.0678 0.901563C55.8668 0.901563 58.6427 1.77045 61.4722 2.65873C64.2838 3.54139 67.1491 4.44344 70.0563 4.44344V3.84344C67.2573 3.84344 64.4814 2.97456 61.6519 2.08628C58.8403 1.20362 55.975 0.301562 53.0678 0.301562V0.901563ZM53.0678 0.301562C50.1606 0.301562 47.2952 1.20362 44.4836 2.08628C41.6541 2.97456 38.8782 3.84344 36.0792 3.84344V4.44344C38.9864 4.44344 41.8517 3.54139 44.6633 2.65873C47.4929 1.77045 50.2687 0.901563 53.0678 0.901563V0.301562Z" fill="url(#paint0_linear_37_29)" mask="url(#path-1-inside-1_37_29)"/>
<defs>
<linearGradient id="paint0_linear_37_29" x1="53.0677" y1="0.601562" x2="53.0677" y2="12.669" gradientUnits="userSpaceOnUse">
<stop stop-color="#29B383"/>
<stop offset="0.251348" stop-color="#29B383"/>
<stop offset="0.328348" stop-color="red"/>
<stop offset="1" stop-color="white"/>
</linearGradient>
</defs>
</svg>
